<?xml version="1.0" encoding="utf-8"?>
<!-- Generator: Adobe Illustrator 28.2.0, SVG Export Plug-In . SVG Version: 6.00 Build 0)  -->
<svg version="1.1" id="Capa_1" xmlns="http://www.w3.org/2000/svg" xmlns:xlink="http://www.w3.org/1999/xlink" x="0px" y="0px"
	 viewBox="0 0 595.28 841.89" style="enable-background:new 0 0 595.28 841.89;" xml:space="preserve">
<style type="text/css">
	.st0{fill:none;stroke:#000000;stroke-width:19;stroke-miterlimit:10;}
	.st1{fill:none;stroke:#000000;stroke-width:6;stroke-miterlimit:10;}
	.st2{fill:none;stroke:#000000;stroke-width:7;stroke-miterlimit:10;}
</style>
<ellipse class="st0" cx="297.64" cy="406.14" rx="197.5" ry="193"/>
<ellipse class="st1" cx="297.64" cy="406.14" rx="242.7" ry="237.17"/>
<polygon class="st2" points="297.64,350.02 367.65,313.21 354.28,391.17 410.91,446.38 332.64,457.75 297.64,528.68 262.63,457.75 
	184.36,446.38 241,391.17 227.63,313.21 "/>
<polygon class="st2" points="297.64,317.78 399.47,264.24 380.02,377.63 462.41,457.94 348.56,474.48 297.64,577.65 246.72,474.48 
	132.87,457.94 215.25,377.63 195.8,264.24 "/>
<polygon class="st2" points="297.64,387.86 330.29,370.7 324.06,407.06 350.47,432.81 313.96,438.11 297.64,471.19 281.31,438.11 
	244.8,432.81 271.22,407.06 264.98,370.7 "/>
</svg>
